/* XPM */
static const char *actualsize[]={
"20 20 8 1",
". c None",
"a c #fc02fc",
"b c #fc02fc",
"d c #040204",
"e c #060206",
"f c #090209",
"c c #0a020a",
"# c #fc02fc",
"....................",
".##################.",
".##################.",
".##..............##.",
".##..............##.",
".##.......ddddd..##.",
".##.......d......##.",
".##...ddddd......##.",
".##...d...ddddd..##.",
".##...d..........##.",
".##.ddd..........##.",
".##...d...ddddd..##.",
".##...ddddd......##.",
".##.......d......##.",
".##.......ddddd..##.",
".##..............##.",
".##..............##.",
".##################.",
".##################.",
"...................."};
