/* XPM */
static const char *flip[]={
"20 20 3 1",
". c None",
"# c #040204",
"a c #fc0204",
"....................",
"..............#####.",
"..............#.....",
"..............#.....",
"....aaaa.######.....",
".....aaa.#....#.....",
".....aaa.#....#.....",
"....a..a.#....#####.",
"...a.....#..........",
"...a.....#..........",
".##a.#####..........",
"...a.....#..........",
"....a..a.#..#######.",
".....aaa.#..#.......",
".....aaa.#..#.......",
"....aaaa.####.......",
"............#.......",
"............#.......",
"............#######.",
"...................."};
