/* XPM */
static const char *horifit[]={
"20 20 8 1",
". c None",
"f c #040204",
"e c #ffffff",
"d c #ffffff",
"c c #ffffff",
"b c #040204",
"# c #fc02fc",
"a c #ffffff",
".#................#.",
".#..#..........#..#.",
".#.##..........##.#.",
".##################.",
".##################.",
".#.##..........##.#.",
".#..#..........#..#.",
".#................#.",
"..........bbbbb.....",
"..........b.........",
"......bbbbb.........",
"......b...bbbbb.....",
"......b.............",
"....bbb.............",
"......b...bbbbb.....",
"......bbbbb.........",
"..........b.........",
"..........bbbbb.....",
"....................",
"...................."};
