/* XPM */
static const char *logwin[]={
"20 20 4 1",
". c None",
"b c #000000",
"# c #808080",
"a c #ffffff",
"....................",
"....................",
"..###########.......",
"..#aaaaaaaaa#.......",
"..#aaaaaaaaa######..",
"..#abbbaaaaa#aaaa#..",
"..#aaaaaaaaa#aaaa#..",
"..#aabbbbbba#aaaa#..",
"..#aaaaaaaaa#aaaa#..",
"..#aabbbbbba#bbba#..",
"..#aaaaaaaaa#aaaa#..",
"..#aaabbbbaa#bbba#..",
"..#aaaaaaaaa#aaaa#..",
"..#aabbbbbba#bbaa#..",
"..#aaaaaaaaa#aaaa#..",
"..#aaaaaaaaa#bbba#..",
"..###########aaaa#..",
".......#aaaaaaaaa#..",
".......###########..",
"...................."};
