/* XPM */
static const char *topology[]={
"20 20 3 1",
". c None",
"# c #000000",
"a c #040204",
"....................",
"....................",
"..............#####.",
"..............a.....",
".........aaaaaa.....",
".........a....aaaaa.",
".....#aaaa..........",
".....#...a..........",
".....#...aaaaaaaaaa.",
".....#..............",
".aaaa#..............",
".....#...aaaaaaaaaa.",
".....#...a..........",
".....#aaaa..........",
".........a....aaaaa.",
".........aaaaaa.....",
"..............a.....",
"..............aaaaa.",
"....................",
"...................."};
